<svg width="477" height="477" xmlns="http://www.w3.org/2000/svg" xmlns:xlink="http://www.w3.org/1999/xlink" xml:space="preserve" overflow="hidden"><g transform="translate(-488 -1516)"><path d="M238.597 39.7499C183.944 39.7499 139.096 84.4426 139.096 139.096 139.096 193.749 183.944 238.597 238.597 238.597 293.25 238.597 337.904 193.749 337.904 139.096 337.904 84.4426 293.25 39.7499 238.597 39.7499ZM159.05 258.396C99.3808 258.396 39.75 298.15 39.75 357.703L39.75 401.883C43.5374 426.734 59.6269 437.289 79.5427 437.25L397.496 437.25C417.412 437.289 430.56 420.663 437.25 401.883L437.25 357.703C437.29 278.273 377.658 258.396 317.949 258.396Z" transform="matrix(1 0 0 1 488 1516)"/><g><g><g><path d="M774.4 1830.8 774.4 1810.6C774.4 1777.13 801.531 1750 835 1750 868.468 1750 895.6 1777.13 895.6 1810.6L895.6 1830.8 905.7 1830.8C916.856 1830.8 925.9 1839.84 925.9 1851L925.9 1931.8C925.9 1942.96 916.856 1952 905.7 1952L764.3 1952C753.144 1952 744.1 1942.96 744.1 1931.8L744.1 1851C744.1 1839.89 753.19 1830.8 764.3 1830.8L774.4 1830.8ZM824.9 1898.77 824.9 1921.7 845.1 1921.7 845.1 1898.77C854.762 1893.19 858.071 1880.84 852.494 1871.18 846.916 1861.52 834.561 1858.21 824.9 1863.79 815.238 1869.36 811.928 1881.72 817.506 1891.38 819.279 1894.45 821.829 1897 824.9 1898.77ZM804.7 1810.6 804.7 1830.8 865.3 1830.8 865.3 1810.6C865.3 1793.87 851.735 1780.3 835 1780.3 818.266 1780.3 804.7 1793.87 804.7 1810.6Z" fill="#BFBFBF"/></g></g></g></g></svg>