<svg width="416" height="416" xmlns="http://www.w3.org/2000/svg" xmlns:xlink="http://www.w3.org/1999/xlink" xml:space="preserve" overflow="hidden"><g transform="translate(-1018 -283)"><path d="M242.667 34.6667 104 34.6667C84.76 34.6667 69.3333 50.2667 69.3333 69.3333L69.3333 346.667C69.3333 365.907 84.76 381.333 104 381.333L312 381.333C331.24 381.333 346.667 365.907 346.667 346.667L346.667 138.667 242.667 34.6667M312 346.667 104 346.667 104 69.3333 225.333 69.3333 225.333 156 312 156 312 346.667M260 206.787 260 329.333 137.453 329.333 174.2 292.587 125.147 243.533 174.2 194.48 223.253 243.533 260 206.787Z" transform="matrix(1 0 0 1 1018 283)"/><rect x="1132.5" y="477.5" width="174" height="144" stroke="#FFFFFF" stroke-width="6.875" stroke-miterlimit="8" fill="#FFFFFF"/></g></svg>