<svg width="121" height="122" xmlns="http://www.w3.org/2000/svg" xmlns:xlink="http://www.w3.org/1999/xlink" xml:space="preserve" overflow="hidden"><g transform="translate(-149 -81)"><path d="M70.5833 10.0833 30.25 10.0833C24.6537 10.0833 20.1667 14.6208 20.1667 20.1667L20.1667 100.833C20.1667 106.43 24.6537 110.917 30.25 110.917L90.75 110.917C96.3463 110.917 100.833 106.43 100.833 100.833L100.833 40.3333 70.5833 10.0833M90.75 100.833 30.25 100.833 30.25 20.1667 65.5417 20.1667 65.5417 45.375 90.75 45.375 90.75 100.833M75.625 60.1471 75.625 95.7917 39.9804 95.7917 50.6688 85.1033 36.4008 70.8354 50.6688 56.5675 64.9367 70.8354 75.625 60.1471Z" transform="matrix(1 0 0 1.00826 149 81)"/></g></svg>