<svg width="139" height="139" xmlns="http://www.w3.org/2000/svg" xmlns:xlink="http://www.w3.org/1999/xlink" xml:space="preserve" overflow="hidden"><g transform="translate(-142 -441)"><path d="M211.528 452.583C195.602 452.583 182.533 465.607 182.533 481.533 182.533 497.459 195.602 510.528 211.528 510.528 227.454 510.528 240.467 497.459 240.467 481.533 240.467 465.607 227.454 452.583 211.528 452.583ZM188.348 516.298C170.96 516.298 153.583 527.882 153.583 545.236L153.583 558.111C154.687 565.352 159.376 568.428 165.179 568.417L257.832 568.417C263.636 568.428 267.467 563.583 269.417 558.111L269.417 545.236C269.428 522.09 252.051 516.298 234.652 516.298Z"/></g></svg>